<svg width="235" height="235" viewBox="0 0 235 235" fill="none" xmlns="http://www.w3.org/2000/svg">
<g clip-path="url(#clip0_57_70)">
<circle cx="117.5" cy="117.5" r="117.5" fill="black"/>
<path d="M63.5625 76L78.375 121.5L94.375 76H108.75V167H97.5V130.688L98.4375 92.6875L81.625 141.688H75L59.5625 94L60.5 130.688V167H49.25V76H63.5625Z" fill="white"/>
<path d="M127.625 167V76H154.688C158.438 76.0417 162.104 76.5417 165.688 77.5C169.271 78.4167 172.458 79.8542 175.25 81.8125C178.042 83.7708 180.271 86.2708 181.938 89.3125C183.604 92.3542 184.417 96 184.375 100.25C184.333 102.625 183.938 104.792 183.188 106.75C182.479 108.708 181.5 110.458 180.25 112C178.958 113.583 177.521 114.917 175.938 116C174.396 117.083 172.521 118.104 170.312 119.062V119.25C172.604 119.792 174.812 120.771 176.938 122.188C179.062 123.604 180.812 125.167 182.188 126.875C183.646 128.75 184.771 130.854 185.562 133.188C186.396 135.521 186.812 138.042 186.812 140.75C186.854 145 186.042 148.75 184.375 152C182.708 155.25 180.479 157.958 177.688 160.125C174.896 162.333 171.667 164.021 168 165.188C164.375 166.354 160.625 166.958 156.75 167H127.625ZM139.25 124.438V157.188H157.062C159.479 157.146 161.771 156.75 163.938 156C166.104 155.208 168.021 154.125 169.688 152.75C171.354 151.375 172.667 149.688 173.625 147.688C174.625 145.688 175.125 143.417 175.125 140.875C175.167 138.292 174.729 136 173.812 134C172.938 132 171.708 130.292 170.125 128.875C168.542 127.5 166.688 126.438 164.562 125.688C162.438 124.938 160.146 124.521 157.688 124.438H139.25ZM139.25 114.812H155.375C157.542 114.771 159.667 114.438 161.75 113.812C163.833 113.146 165.688 112.188 167.312 110.938C168.938 109.729 170.25 108.229 171.25 106.438C172.25 104.646 172.75 102.562 172.75 100.188C172.75 97.6458 172.25 95.4792 171.25 93.6875C170.292 91.8958 169 90.4167 167.375 89.25C165.708 88.125 163.792 87.2917 161.625 86.75C159.5 86.2083 157.312 85.9167 155.062 85.875H139.25V114.812Z" fill="white"/>
</g>
<defs>
<clipPath id="clip0_57_70">
<rect width="235" height="235" fill="white"/>
</clipPath>
</defs>
</svg>
