<?xml version="1.0" standalone="no"?>
<!DOCTYPE svg PUBLIC "-//W3C//DTD SVG 20010904//EN"
 "http://www.w3.org/TR/2001/REC-SVG-20010904/DTD/svg10.dtd">
<svg version="1.0" xmlns="http://www.w3.org/2000/svg"
 width="700.000000pt" height="700.000000pt" viewBox="0 0 700.000000 700.000000"
 preserveAspectRatio="xMidYMid meet">
<metadata>
Created by potrace 1.14, written by Peter Selinger 2001-2017
</metadata>
<g transform="translate(0.000000,700.000000) scale(0.100000,-0.100000)"
fill="#000000" stroke="none">
<path d="M3280 6994 c-19 -2 -84 -9 -145 -14 -639 -62 -1264 -315 -1795 -726
-149 -115 -481 -446 -595 -594 -410 -532 -653 -1132 -727 -1795 -17 -155 -17
-575 0 -730 75 -673 332 -1300 748 -1820 114 -143 339 -372 484 -494 537 -451
1163 -717 1885 -803 142 -17 586 -17 730 0 682 79 1268 318 1802 734 138 107
389 351 512 498 451 538 717 1162 803 1885 16 139 16 595 0 730 -77 629 -275
1158 -620 1649 -234 333 -577 668 -917 896 -460 308 -968 495 -1535 566 -117
15 -552 27 -630 18z m-1169 -2928 c120 -367 220 -670 222 -672 2 -3 38 91 79
208 42 117 149 421 238 676 l163 462 213 0 214 0 0 -1355 0 -1355 -170 0 -170
0 0 468 c0 257 7 738 16 1070 8 331 14 614 12 627 -2 14 -108 -281 -249 -693
l-246 -717 -99 -3 -100 -3 -224 693 c-123 381 -226 696 -229 700 -3 4 -1 -187
6 -425 6 -238 12 -721 12 -1074 l1 -643 -165 0 -165 0 0 1355 0 1355 212 -2
212 -3 217 -669z m2594 664 c280 -27 484 -113 623 -266 171 -186 211 -467 101
-703 -42 -91 -167 -214 -271 -267 -77 -39 -94 -54 -60 -54 30 0 153 -64 219
-114 110 -83 189 -206 227 -352 23 -89 21 -270 -3 -366 -68 -266 -277 -456
-606 -549 -78 -22 -94 -23 -607 -27 l-528 -3 0 1355 0 1356 398 0 c218 0 447
-5 507 -10z"/>
<path d="M4150 4011 l0 -431 268 0 c305 0 364 9 482 67 176 86 263 242 240
429 -20 167 -134 286 -325 340 -49 14 -116 18 -362 22 l-303 4 0 -431z"/>
<path d="M4150 2806 l0 -486 298 0 c331 0 389 7 497 61 193 95 298 292 265
502 -28 183 -136 308 -327 379 -54 21 -79 22 -395 26 l-338 3 0 -485z"/>
</g>
</svg>
