<svg width="222" height="222" viewBox="0 0 222 222" fill="none" xmlns="http://www.w3.org/2000/svg">
<g clip-path="url(#clip0_57_39)">
<mask id="mask0_57_39" style="mask-type:luminance" maskUnits="userSpaceOnUse" x="0" y="0" width="222" height="222">
<path d="M222 0H0V222H222V0Z" fill="white"/>
</mask>
<g mask="url(#mask0_57_39)">
<mask id="mask1_57_39" style="mask-type:luminance" maskUnits="userSpaceOnUse" x="-70" y="-33" width="362" height="195">
<path d="M291.337 -32.8438H-69.9452V161.178H291.337V-32.8438Z" fill="white"/>
</mask>
<g mask="url(#mask1_57_39)">
<path d="M157.405 132.18C152.745 132.18 148.954 128.376 148.954 123.703C148.954 119.03 152.745 115.229 157.405 115.229C162.067 115.229 165.858 119.029 165.858 123.703C165.858 128.376 162.067 132.18 157.405 132.18ZM63.9865 132.18C59.3259 132.18 55.535 128.376 55.535 123.703C55.535 119.03 59.3252 115.229 63.9865 115.229C68.6467 115.229 72.4377 119.029 72.4377 123.703C72.4377 128.376 68.6473 132.18 63.9865 132.18ZM160.437 81.1316L177.329 51.7974C177.793 50.9879 177.919 50.0264 177.678 49.124C177.437 48.2217 176.849 47.4521 176.042 46.9841C175.235 46.5181 174.276 46.3922 173.376 46.634C172.476 46.8758 171.709 47.4655 171.242 48.2739L154.139 77.9786C141.059 71.9943 126.37 68.66 110.696 68.66C95.0215 68.66 80.333 71.9943 67.2538 77.9786L50.1499 48.2739C49.683 47.4655 48.9155 46.8758 48.0156 46.634C47.1158 46.3922 46.157 46.5181 45.3496 46.9841C44.5427 47.4517 43.9539 48.2213 43.7128 49.1238C43.4716 50.0263 43.5976 50.988 44.0632 51.7974L60.9551 81.1316C31.9493 96.9495 12.1113 126.393 9.20911 161.178H212.183C209.278 126.393 189.44 96.9495 160.437 81.1303" fill="#333333"/>
</g>
</g>
</g>
<defs>
<clipPath id="clip0_57_39">
<rect width="222" height="222" fill="white"/>
</clipPath>
</defs>
</svg>
