<svg width="365" height="365" viewBox="0 0 365 365" fill="none" xmlns="http://www.w3.org/2000/svg">
<g clip-path="url(#clip0_51_12)">
<g clip-path="url(#clip1_51_12)">
<path d="M258.797 217.323C251.135 217.323 244.902 211.068 244.902 203.385C244.902 195.702 251.135 189.453 258.797 189.453C266.461 189.453 272.694 195.701 272.694 203.385C272.694 211.069 266.461 217.323 258.797 217.323ZM105.203 217.323C97.5404 217.323 91.3076 211.068 91.3076 203.385C91.3076 195.702 97.5392 189.453 105.203 189.453C112.865 189.453 119.098 195.701 119.098 203.385C119.098 211.069 112.866 217.323 105.203 217.323ZM263.781 133.392L291.554 85.1624C292.318 83.8314 292.525 82.2506 292.128 80.767C291.732 79.2834 290.765 78.0181 289.439 77.2487C288.111 76.4825 286.535 76.2755 285.055 76.673C283.576 77.0706 282.314 78.0402 281.546 79.3693L253.427 128.208C231.921 118.369 207.771 112.887 182 112.887C156.229 112.887 132.079 118.369 110.575 128.208L82.4536 79.3693C81.6861 78.0402 80.4242 77.0706 78.9446 76.673C77.4651 76.2755 75.8887 76.4825 74.5612 77.2487C73.2346 78.0174 72.2666 79.2827 71.8701 80.7666C71.4735 82.2505 71.6807 83.8316 72.4462 85.1624L100.219 133.392C52.5293 159.399 19.9127 207.808 15.1411 265H348.859C344.083 207.809 311.467 159.399 263.781 133.39" fill="#3DDB85"/>
</g>
</g>
<defs>
<clipPath id="clip0_51_12">
<rect width="365" height="365" fill="white"/>
</clipPath>
<clipPath id="clip1_51_12">
<rect width="594" height="319" fill="white" transform="translate(-115 -54)"/>
</clipPath>
</defs>
</svg>
