<svg width="128" height="128" viewBox="0 0 128 128" fill="none" xmlns="http://www.w3.org/2000/svg">
<g clip-path="url(#clip0_40_7)">
<path d="M85.1259 41.1337L96.2524 30.1152L96.9939 25.4757C76.7184 7.2182 44.4879 9.2884 26.2099 29.7954C21.1334 35.491 17.3669 42.5919 15.3584 49.9245L19.3434 49.3685L41.5959 45.7341L43.3139 43.9946C53.2124 33.2292 69.9489 31.7809 81.3779 40.9406L85.1259 41.1337Z" fill="#EA4335"/>
<path d="M112.103 49.6001C109.545 40.2735 104.294 31.8891 96.994 25.4756L81.378 40.94C84.6326 43.5734 87.2407 46.9043 89.0058 50.6815C90.7709 54.4587 91.6468 58.5834 91.5675 62.7447V65.4898C99.2425 65.4898 105.466 71.6519 105.466 79.2529C105.466 86.8543 99.243 92.8619 91.5675 92.8619H63.732L60.999 95.8001V112.308L63.732 114.898H91.567C111.532 115.052 127.844 99.3043 127.999 79.5331C128.045 73.6329 126.618 67.8128 123.845 62.5905C121.072 57.3683 117.038 52.9058 112.103 49.6001Z" fill="#4285F4"/>
<path d="M35.9348 114.899H63.7313V92.8621H35.9348C33.9671 92.8618 32.0228 92.4399 30.2353 91.6252L26.2918 92.8235L15.0873 103.842L14.1113 107.592C20.3948 112.291 28.0613 114.933 35.9348 114.899Z" fill="#34A853"/>
<path d="M35.9352 43.4148C15.9702 43.5321 -0.118344 59.6561 0.00065591 79.4277C0.0334794 84.8761 1.32165 90.2451 3.76703 95.1258C6.21241 100.006 9.75047 104.27 14.1117 107.592L30.2357 91.6252C23.2407 88.4948 20.1317 80.3428 23.2922 73.4157C26.4522 66.4886 34.6852 63.4098 41.6797 66.5391C44.762 67.9182 47.2308 70.3631 48.6232 73.4157L64.7472 57.4482C61.3628 53.0671 57.001 49.5207 52.0027 47.0863C47.0044 44.6518 41.5052 43.3949 35.9352 43.4148Z" fill="#FBBC05"/>
</g>
<defs>
<clipPath id="clip0_40_7">
<rect width="128" height="102" fill="white" transform="translate(0 13)"/>
</clipPath>
</defs>
</svg>
