<svg width="222" height="222" viewBox="0 0 222 222" fill="none" xmlns="http://www.w3.org/2000/svg">
<path d="M173.068 180.375C165.39 191.845 157.25 203.037 144.855 203.222C132.46 203.5 128.483 195.915 114.423 195.915C100.27 195.915 95.9226 203.037 84.1751 203.5C72.0576 203.963 62.9001 191.29 55.1301 180.097C39.3126 157.25 27.1951 115.163 43.4751 86.8575C51.5226 72.7975 65.9526 63.9175 81.5851 63.64C93.4251 63.455 104.71 71.6875 112.018 71.6875C119.233 71.6875 132.923 61.79 147.26 63.27C153.273 63.5475 170.108 65.675 180.93 81.585C180.098 82.14 160.858 93.425 161.043 116.828C161.32 144.763 185.555 154.105 185.833 154.198C185.555 154.845 181.948 167.518 173.068 180.375ZM120.25 32.375C127.003 24.6975 138.195 18.87 147.445 18.5C148.648 29.3225 144.3 40.2375 137.825 48.0075C131.443 55.87 120.898 61.975 110.538 61.1425C109.15 50.505 114.33 39.405 120.25 32.375Z" fill="#333333"/>
</svg>
