<svg width="306" height="306" viewBox="0 0 306 306" fill="none" xmlns="http://www.w3.org/2000/svg">
<path d="M153.411 12C68.826 12 0 80.8409 0 165.441C0 219.354 28.195 266.629 69.6568 294L77.1203 289.024C78.7782 288.194 81.2668 286.535 82.9247 285.707C85.4122 284.877 87.9008 283.217 89.5587 282.389C92.0462 281.559 94.5348 280.729 97.0222 279.071C98.6801 278.241 101.169 277.412 102.827 276.582C105.314 275.754 108.631 274.924 111.12 274.094C113.606 273.264 115.265 273.264 117.754 272.436C120.24 271.606 121.899 271.606 124.388 270.776C126.874 269.947 129.363 269.947 131.85 269.947C134.339 269.947 137.656 269.118 140.143 269.118V177.882H131.85V161.294H173.313V270.776C196.532 274.094 217.263 282.389 236.336 294C278.627 266.629 305.993 219.354 305.993 165.441C306.822 80.8397 237.994 12 153.411 12ZM199.019 165.441C199.019 140.559 178.288 119.824 153.411 119.824C128.533 119.824 107.803 140.559 107.803 165.441C107.803 182.859 117.754 198.618 132.68 206.083V215.205C113.607 206.911 99.5097 187.835 99.5097 165.441C99.5097 135.583 123.558 111.529 153.411 111.529C183.264 111.529 207.312 135.583 207.312 165.441C207.312 184.518 197.361 201.106 182.434 211.059V201.106C192.385 191.983 199.019 179.542 199.019 165.441ZM182.434 255.848V246.723C216.434 235.112 240.482 202.765 240.482 164.612C240.482 117.335 201.507 78.3529 153.411 78.3529C105.314 78.3529 66.3398 117.335 66.3398 165.441C66.3398 206.083 94.5348 240.918 132.68 250.041V258.336C90.3883 249.212 58.0479 211.059 58.0479 165.441C58.0479 112.359 100.338 70.0594 153.41 70.0594C206.482 70.0594 248.774 112.358 248.774 165.44C248.774 207.741 220.58 244.235 182.434 255.848Z" fill="#E44A49"/>
</svg>
