<svg width="128" height="128" viewBox="0 0 128 128" fill="none" xmlns="http://www.w3.org/2000/svg">
<g clip-path="url(#clip0_42_12)">
<path d="M116.534 90.2565C110.45 93.4285 78.934 106.391 72.2245 109.89C65.515 113.389 61.7877 113.356 56.4871 110.821C51.187 108.286 17.6488 94.7346 11.6072 91.8459C8.58798 90.4026 7 89.1838 7 88.0328V76.5062C7 76.5062 50.6629 66.9979 57.7117 64.4682C64.7601 61.9385 67.2058 61.8472 73.2042 64.045C79.2034 66.2438 115.072 72.7171 121 74.8892L120.997 86.2527C120.998 87.3922 119.63 88.6421 116.534 90.2565Z" fill="#912626"/>
<path d="M116.531 78.798C110.448 81.9687 78.933 94.9315 72.2235 98.4301C65.5144 101.93 61.7871 101.896 56.487 99.3611C51.1865 96.8282 17.6495 83.2743 11.6084 80.3874C5.56733 77.4986 5.44086 75.5105 11.3751 73.1861C17.3093 70.8609 50.6623 57.7712 57.7121 55.2414C64.7605 52.7126 67.2057 52.6204 73.2041 54.8192C79.2029 57.017 110.53 69.4902 116.457 71.6618C122.387 73.8361 122.615 75.6263 116.531 78.798Z" fill="#C6302B"/>
<path d="M116.534 71.6058C110.45 74.7783 78.934 87.7402 72.2245 91.2405C65.515 94.7387 61.7877 94.7048 56.4871 92.1702C51.1866 89.6369 17.6488 76.084 11.6072 73.1952C8.58798 71.7519 7 70.5349 7 69.3834V57.8555C7 57.8555 50.6629 48.3477 57.7117 45.818C64.7601 43.2883 67.2058 43.1965 73.2042 45.3948C79.2039 47.5931 115.072 54.0651 121 56.2376L120.997 67.6025C120.998 68.7415 119.63 69.9915 116.534 71.6058Z" fill="#912626"/>
<path d="M116.531 60.1474C110.448 63.319 78.933 76.2808 72.2235 79.7808C65.5144 83.2794 61.7871 83.2451 56.487 80.7104C51.1865 78.1776 17.6495 64.6242 11.6084 61.7367C5.56733 58.8489 5.44086 56.8604 11.3751 54.5351C17.3093 52.2111 50.6628 39.1206 57.7121 36.5913C64.7605 34.062 67.2057 33.9702 73.2041 36.1685C79.2029 38.3664 110.53 50.8387 116.457 53.0112C122.387 55.185 122.615 56.9757 116.531 60.1474Z" fill="#C6302B"/>
<path d="M116.534 52.2636C110.45 55.4352 78.934 68.398 72.2245 71.8983C65.515 75.3969 61.7877 75.3626 56.4871 72.828C51.1866 70.2947 17.6488 56.7413 11.6072 53.8539C8.58798 52.4093 7 51.1918 7 50.0417V38.5133C7 38.5133 50.6629 29.006 57.7117 26.4767C64.7601 23.9465 67.2058 23.8556 73.2042 26.0535C79.2039 28.2518 115.072 34.7238 121 36.8963L120.997 48.2607C120.998 49.3989 119.63 50.6488 116.534 52.2636Z" fill="#912626"/>
<path d="M116.531 40.8053C110.448 43.9769 78.9328 56.9396 72.2233 60.4382C65.5142 63.9368 61.7869 63.9025 56.4868 61.3692C51.1867 58.8346 17.6493 45.2821 11.6087 42.3942C5.56711 39.5068 5.44108 37.5178 11.3749 35.193C17.3091 32.8686 50.6626 19.7798 57.7119 17.2496C64.7603 14.7199 67.2055 14.629 73.2038 16.8274C79.2027 19.0257 110.529 31.498 116.457 33.6704C122.387 35.8425 122.614 37.6336 116.531 40.8053Z" fill="#C6302B"/>
<path d="M77.9311 29.5918L68.1297 30.6096L65.9357 35.891L62.3919 29.9976L51.0743 28.9802L59.5192 25.9337L56.9854 21.2573L64.8919 24.3506L72.3455 21.9095L70.3309 26.7449L77.9311 29.5918ZM65.3505 55.2134L47.0584 47.6242L73.2695 43.5995L65.3505 55.2134ZM39.99 32.5273C47.7273 32.5273 53.9995 34.9595 53.9995 37.9592C53.9995 40.9598 47.7273 43.3915 39.99 43.3915C32.2527 43.3915 25.9805 40.9593 25.9805 37.9592C25.9805 34.9595 32.2527 32.5273 39.99 32.5273Z" fill="white"/>
<path d="M89.5146 31.0354L105.028 37.1675L89.528 43.2939L89.5146 31.0354Z" fill="#621B1C"/>
<path d="M72.3516 37.8264L89.5139 31.0354L89.5273 43.2939L87.8444 43.9522L72.3516 37.8264Z" fill="#9A2928"/>
</g>
<defs>
<clipPath id="clip0_42_12">
<rect width="114" height="98" fill="white" transform="translate(7 15)"/>
</clipPath>
</defs>
</svg>
