<svg width="306" height="306" viewBox="0 0 306 306" fill="none" xmlns="http://www.w3.org/2000/svg">
<path d="M179.264 301.457C179.293 301.471 179.322 301.483 179.352 301.495C185.287 303.999 191.879 304.734 198.16 303.302C259.753 289.284 305.748 234.165 305.748 168.298V95.8399C300.335 97.0181 294.721 98.3458 289.259 99.8494H289.208C262.368 107.218 238.886 118.646 255.901 134.463C288.957 165.165 227.832 177.068 186.13 186.041C120.971 200.026 63.0792 252.008 179.264 301.457Z" fill="#2855A3"/>
<path d="M0 139.474V168.187C0 179.981 11.5361 188.27 22.7354 184.574C36.0327 180.184 51.4181 176.336 69.1692 173.184C219.363 146.568 196.355 135.59 184.853 128.398C173.349 121.179 153.501 104.261 215.076 91.905C246.704 85.539 280.436 82.0307 305.748 80.1247V0.999858H138.464C61.9924 0.999858 0 62.9976 0 139.474Z" fill="#6DD0F6"/>
<path d="M289.259 99.8494C295.906 97.9482 305.749 95.8399 305.749 95.8399C300.335 97.0181 294.721 98.3458 289.259 99.8494Z" fill="#C4C2C1"/>
<path d="M179.264 301.457C130.816 280.839 112.636 259.777 112.631 241.216C112.624 215.265 148.142 194.196 186.13 186.042C219.505 178.861 265.317 169.801 265.341 150.735C265.348 145.976 262.502 140.593 255.901 134.463C251.896 130.74 250.135 127.261 250.133 124.02C250.123 113.493 268.685 105.483 289.208 99.8498H289.259C294.721 98.3463 300.334 97.0186 305.748 95.8403V119.124C285.498 126.391 271.916 136.468 285.975 149.501C319.031 180.204 257.905 192.107 216.204 201.08C157.636 213.663 104.932 256.921 179.264 301.457Z" fill="#22427A"/>
</svg>
