<svg width="128" height="128" viewBox="0 0 128 128" fill="none" xmlns="http://www.w3.org/2000/svg">
<path fill-rule="evenodd" clip-rule="evenodd" d="M13.248 8H114.752C117.65 8 120 10.3496 120 13.248V114.752C120 117.65 117.65 120 114.752 120H13.248C10.3496 120 8 117.65 8 114.752V13.248C8 10.3496 10.3496 8 13.248 8ZM72.98 107.308V95.0359C75.118 96.8488 77.5632 98.2644 80.2 99.2159C82.7238 100.137 85.3892 100.611 88.076 100.616C89.445 100.636 90.8117 100.495 92.148 100.196C93.1737 99.9694 94.155 99.5747 95.052 99.0279C95.7688 98.5927 96.3666 97.9866 96.792 97.2639C97.1748 96.5914 97.3735 95.8298 97.368 95.0559C97.3787 94.0232 97.056 93.0146 96.448 92.1799C95.7564 91.2596 94.9089 90.4676 93.944 89.8399C92.7476 89.0471 91.4872 88.3554 90.176 87.7719C88.7226 87.1079 87.156 86.4292 85.476 85.7359C81.7943 84.3674 78.5047 82.1162 75.896 79.1799C73.7696 76.5316 72.6513 73.215 72.74 69.8199C72.67 67.2525 73.2638 64.7106 74.464 62.4399C75.5964 60.3952 77.2027 58.6518 79.148 57.3559C81.2421 55.9757 83.5669 54.9826 86.012 54.4239C88.717 53.7845 91.4884 53.4689 94.268 53.4839C96.8108 53.4612 99.3515 53.6337 101.868 53.9999C103.952 54.3177 105.996 54.854 107.968 55.5999V67.0519C107.021 66.3976 106.015 65.8326 104.964 65.3639C103.88 64.8818 102.763 64.4807 101.62 64.1639C100.496 63.8488 99.3523 63.6122 98.196 63.4559C97.1252 63.3051 96.0453 63.2276 94.964 63.2239C93.6782 63.2108 92.3952 63.3451 91.14 63.6239C90.1175 63.8432 89.137 64.2254 88.236 64.7559C87.4988 65.1894 86.8708 65.786 86.4 66.4999C85.9665 67.182 85.7413 67.9758 85.752 68.7839C85.7391 69.662 85.9914 70.5235 86.476 71.2559C87.0368 72.0625 87.7355 72.7639 88.54 73.3279C89.5671 74.0586 90.6551 74.6996 91.792 75.2439C93.072 75.8706 94.512 76.5159 96.112 77.1799C98.1461 78.0222 100.12 79.0032 102.02 80.1159C103.67 81.0751 105.181 82.2553 106.512 83.6239C107.751 84.9109 108.726 86.4291 109.38 88.0919C110.93 92.5386 110.662 97.4172 108.636 101.668C107.504 103.721 105.881 105.461 103.912 106.732C101.791 108.084 99.4379 109.034 96.972 109.532C94.2254 110.106 91.4259 110.389 88.62 110.376C85.741 110.388 82.8671 110.131 80.036 109.608C77.586 109.183 75.2097 108.408 72.98 107.308ZM68.364 64.4839H52.364V109.5H39.68V64.4839H23.752V54.3759H68.364V64.4839Z" fill="#333333"/>
</svg>
