<svg width="222" height="222" viewBox="0 0 222 222" fill="none" xmlns="http://www.w3.org/2000/svg">
<path d="M110.984 222L200.655 170.22L166.285 150.343L131.147 170.642C130.847 170.806 130.511 170.891 130.169 170.889C129.827 170.886 129.492 170.795 129.195 170.626C128.899 170.453 128.653 170.207 128.48 169.91C128.307 169.614 128.214 169.278 128.21 168.935V120.726C128.21 119.306 128.946 118.021 130.175 117.313L171.929 93.2001C172.226 93.0305 172.563 92.9426 172.905 92.9454C173.248 92.9481 173.583 93.0414 173.878 93.2157C174.489 93.5539 174.87 94.1939 174.877 94.8911V135.472L209.27 155.338V51.7798L110.983 108.513L110.984 222Z" fill="black"/>
<path d="M90.8761 170.664L55.7203 150.341L21.3242 170.217L110.984 222V108.513L12.7303 51.778V155.331L47.1143 135.472V94.8946C47.1299 94.1991 47.5046 93.5591 48.1064 93.2192C48.403 93.0448 48.7402 92.9515 49.0842 92.9488C49.4282 92.946 49.7669 93.0339 50.0662 93.2036L91.8404 117.313C92.4387 117.66 92.9352 118.159 93.2801 118.759C93.625 119.358 93.8062 120.038 93.8054 120.73V168.945C93.8014 169.289 93.7092 169.626 93.5376 169.923C93.366 170.221 93.1208 170.47 92.8255 170.645C92.5306 170.818 92.1955 170.911 91.8536 170.915C91.5116 170.919 91.1746 170.833 90.8761 170.666" fill="#4D4D4D"/>
<path d="M119.601 0V39.7172L154.741 60.0042C155.345 60.3563 155.704 61.0032 155.704 61.7108C155.704 62.4098 155.336 63.0497 154.741 63.4018L112.972 87.5304C112.372 87.8706 111.694 88.0495 111.004 88.0495C110.314 88.0495 109.635 87.8706 109.035 87.5304L67.2782 63.4018C66.9818 63.2303 66.736 62.9837 66.5655 62.6867C66.3949 62.3898 66.3058 62.0532 66.3069 61.7108C66.3039 61.3659 66.3921 61.0264 66.5627 60.7267C66.7333 60.4269 66.9801 60.1777 67.2782 60.0042L102.411 39.7172V0L12.7286 51.7798L110.984 108.513L209.263 51.7815L119.601 0Z" fill="#808080"/>
</svg>
