<svg width="222" height="222" viewBox="0 0 222 222" fill="none" xmlns="http://www.w3.org/2000/svg">
<path d="M208.125 155.4V51.7954L119.464 0V39.7796L154.193 60.1204C155.566 61.05 155.566 62.8954 154.193 63.3671L113.053 87.4125C111.68 88.3421 110.32 87.8704 109.404 87.4125L68.265 63.3671C66.8914 62.8954 66.8914 60.5921 68.265 60.1204L103.008 39.7796V0L13.875 51.7954V155.4L47.7022 135.517V94.8079C47.7022 93.4204 49.5199 92.5046 50.4356 92.9625L91.575 117.008C92.9486 117.937 93.4065 118.867 93.4065 120.255V168.345C93.4065 169.733 91.575 170.663 90.6592 170.205L55.9301 149.85L22.1029 169.733L110.764 222L199.439 170.205L165.612 150.308L130.897 170.663C129.523 171.592 128.15 170.662 128.15 168.817V120.712C128.15 119.325 129.065 117.938 129.981 117.48L171.12 93.4204C172.494 92.5046 173.854 93.4204 173.854 95.2796V135.975L208.125 155.4Z" fill="#333333"/>
</svg>
