<svg width="256" height="256" viewBox="0 0 256 256" fill="none" xmlns="http://www.w3.org/2000/svg">
<g clip-path="url(#clip0_19_46)">
<path d="M128.004 51.968C157.716 51.968 184.42 62.224 202.404 80.672C217.197 82.6148 231.151 88.6556 242.692 98.112C222.516 55.712 180.724 32 128.004 32C76.0038 32 33.9238 55.68 13.5078 97.952C24.0875 89.3362 36.695 83.5695 50.1318 81.2C67.7798 61.952 95.5878 51.968 128.004 51.968Z" fill="white"/>
<path d="M192.004 224C175.359 223.999 159.37 217.514 147.428 205.92L147.396 205.888C146.018 204.851 144.538 203.956 142.98 203.216C138.284 201.058 133.171 199.96 128.004 200C121.38 200 116.34 201.648 113.044 203.216C111.48 203.955 109.995 204.85 108.612 205.888L108.58 205.92C101.057 213.223 91.8548 218.567 81.7827 221.48C71.7106 224.393 61.077 224.787 50.817 222.628C40.5569 220.468 30.9845 215.82 22.9416 209.094C14.8987 202.367 8.6316 193.768 4.6913 184.052C0.751009 174.335 -0.741759 163.8 0.344253 153.371C1.43027 142.942 5.06179 132.94 10.9195 124.244C16.7773 115.548 24.6818 108.425 33.938 103.5C43.1943 98.5748 53.5188 95.9994 64.0038 96H192.004C208.978 96 225.256 102.743 237.259 114.745C249.261 126.747 256.004 143.026 256.004 160C256.004 176.974 249.261 193.253 237.259 205.255C225.256 217.257 208.978 224 192.004 224Z" fill="white"/>
</g>
<defs>
<clipPath id="clip0_19_46">
<rect width="256" height="256" fill="white"/>
</clipPath>
</defs>
</svg>
