<svg width="256" height="256" viewBox="0 0 256 256" fill="none" xmlns="http://www.w3.org/2000/svg">
<path d="M227.088 57.602L133.256 225.389C131.318 228.854 126.341 228.874 124.375 225.427L28.6822 57.617C26.5402 53.861 29.7522 49.311 34.0102 50.072L127.942 66.862C128.542 66.9688 129.155 66.9675 129.754 66.858L221.722 50.095C225.965 49.322 229.192 53.837 227.088 57.602Z" fill="url(#paint0_linear_19_4)"/>
<path d="M172.687 28.05L103.249 41.655C102.694 41.7635 102.191 42.0535 101.819 42.4793C101.447 42.9051 101.227 43.4426 101.194 44.007L96.9224 116.148C96.8991 116.544 96.9682 116.939 97.1244 117.303C97.2806 117.667 97.5194 117.99 97.822 118.246C98.1246 118.502 98.4827 118.683 98.8677 118.776C99.2528 118.87 99.6543 118.872 100.04 118.783L119.373 114.322C121.182 113.905 122.816 115.498 122.445 117.317L116.701 145.443C116.314 147.336 118.092 148.954 119.94 148.393L131.881 144.765C133.732 144.203 135.511 145.826 135.119 147.721L125.991 191.9C125.42 194.664 129.096 196.171 130.629 193.801L131.653 192.219L188.235 79.299C189.183 77.409 187.549 75.253 185.472 75.653L165.573 79.494C163.703 79.854 162.112 78.113 162.639 76.284L175.628 31.258C176.156 29.426 174.559 27.684 172.687 28.05Z" fill="url(#paint1_linear_19_4)"/>
<defs>
<linearGradient id="paint0_linear_19_4" x1="26.3462" y1="44.075" x2="143.127" y2="202.673" gradientUnits="userSpaceOnUse">
<stop stop-color="#41D1FF"/>
<stop offset="1" stop-color="#BD34FE"/>
</linearGradient>
<linearGradient id="paint1_linear_19_4" x1="122.551" y1="31.743" x2="143.676" y2="176.66" gradientUnits="userSpaceOnUse">
<stop stop-color="#FFEA83"/>
<stop offset="0.083" stop-color="#FFDD35"/>
<stop offset="1" stop-color="#FFA800"/>
</linearGradient>
</defs>
</svg>
